<svg xmlns="http://www.w3.org/2000/svg" xmlns:xlink="http://www.w3.org/1999/xlink" width="3780" zoomAndPan="magnify" viewBox="0 0 2835 1417.499962" height="1890" preserveAspectRatio="xMidYMid meet" version="1.0"><defs><clipPath id="79aed579b0"><path d="M 0.5 0 L 2834.5 0 L 2834.5 1417 L 0.5 1417 Z M 0.5 0 " clip-rule="nonzero"/></clipPath><clipPath id="4be55e1fa8"><path d="M 1130 450.988281 L 1417.617188 450.988281 L 1417.617188 881.8125 L 1130 881.8125 Z M 1130 450.988281 " clip-rule="nonzero"/></clipPath><clipPath id="8cea076c98"><path d="M 1407.640625 594.417969 C 1413.660156 616.386719 1417.617188 641.539062 1417.617188 666.132812 C 1417.617188 690.726562 1414.222656 714.40625 1408.199219 736.226562 C 1408.023438 736.667969 1408.023438 737.140625 1407.816406 737.613281 C 1383.722656 819.515625 1320.128906 879.863281 1248.886719 881.015625 L 1130.992188 881.015625 L 1130.992188 450.988281 L 1248.796875 450.988281 C 1320.511719 452.171875 1384.109375 511.574219 1407.640625 594.417969 Z M 1407.640625 594.417969 " clip-rule="nonzero"/></clipPath><clipPath id="3c7202376f"><path d="M 1097.277344 485.414062 L 1190.25 485.414062 L 1190.25 847.800781 L 1097.277344 847.800781 Z M 1097.277344 485.414062 " clip-rule="nonzero"/></clipPath><clipPath id="b12f71625d"><path d="M 1097.277344 693.445312 L 1164.742188 693.445312 L 1164.742188 760.910156 L 1097.277344 760.910156 Z M 1097.277344 693.445312 " clip-rule="nonzero"/></clipPath><clipPath id="c1b20521da"><path d="M 1131.023438 693.445312 C 1112.394531 693.445312 1097.277344 708.5625 1097.277344 727.191406 C 1097.277344 745.820312 1112.394531 760.910156 1131.023438 760.910156 C 1149.625 760.910156 1164.742188 745.820312 1164.742188 727.191406 C 1164.742188 708.5625 1149.625 693.445312 1131.023438 693.445312 Z M 1131.023438 693.445312 " clip-rule="nonzero"/></clipPath><clipPath id="3095bb474c"><path d="M 1131.023438 693.445312 C 1112.394531 693.445312 1097.277344 708.5625 1097.277344 727.191406 C 1097.277344 745.820312 1112.394531 760.910156 1131.023438 760.910156 C 1149.625 760.910156 1164.742188 745.820312 1164.742188 727.191406 C 1164.742188 708.5625 1149.625 693.445312 1131.023438 693.445312 Z M 1131.023438 693.445312 " clip-rule="nonzero"/></clipPath><clipPath id="539510edc5"><path d="M 2299.605469 963.859375 L 2367.066406 963.859375 L 2367.066406 1031.292969 L 2299.605469 1031.292969 Z M 2299.605469 963.859375 " clip-rule="nonzero"/></clipPath><clipPath id="5401464b0b"><path d="M 2333.320312 963.859375 C 2314.722656 963.859375 2299.605469 978.945312 2299.605469 997.578125 C 2299.605469 1016.207031 2314.722656 1031.292969 2333.320312 1031.292969 C 2351.953125 1031.292969 2367.066406 1016.207031 2367.066406 997.578125 C 2367.066406 978.945312 2351.953125 963.859375 2333.320312 963.859375 Z M 2333.320312 963.859375 " clip-rule="nonzero"/></clipPath><clipPath id="1746875d65"><path d="M 2333.320312 963.859375 C 2314.722656 963.859375 2299.605469 978.945312 2299.605469 997.578125 C 2299.605469 1016.207031 2314.722656 1031.292969 2333.320312 1031.292969 C 2351.953125 1031.292969 2367.066406 1016.207031 2367.066406 997.578125 C 2367.066406 978.945312 2351.953125 963.859375 2333.320312 963.859375 Z M 2333.320312 963.859375 " clip-rule="nonzero"/></clipPath><clipPath id="0f0ce0f725"><path d="M 1790.304688 313.613281 L 1857.769531 313.613281 L 1857.769531 381.074219 L 1790.304688 381.074219 Z M 1790.304688 313.613281 " clip-rule="nonzero"/></clipPath><clipPath id="ab7b843f69"><path d="M 1824.050781 313.613281 C 1805.421875 313.613281 1790.304688 328.726562 1790.304688 347.359375 C 1790.304688 365.988281 1805.421875 381.074219 1824.050781 381.074219 C 1842.683594 381.074219 1857.769531 365.988281 1857.769531 347.359375 C 1857.769531 328.726562 1842.683594 313.613281 1824.050781 313.613281 Z M 1824.050781 313.613281 " clip-rule="nonzero"/></clipPath><clipPath id="cdee54d83f"><path d="M 1824.050781 313.613281 C 1805.421875 313.613281 1790.304688 328.726562 1790.304688 347.359375 C 1790.304688 365.988281 1805.421875 381.074219 1824.050781 381.074219 C 1842.683594 381.074219 1857.769531 365.988281 1857.769531 347.359375 C 1857.769531 328.726562 1842.683594 313.613281 1824.050781 313.613281 Z M 1824.050781 313.613281 " clip-rule="nonzero"/></clipPath><clipPath id="8855588a3b"><path d="M 1655.261719 949.867188 L 1722.695312 949.867188 L 1722.695312 1017.300781 L 1655.261719 1017.300781 Z M 1655.261719 949.867188 " clip-rule="nonzero"/></clipPath><clipPath id="7b22a56e9c"><path d="M 1688.976562 949.867188 C 1670.347656 949.867188 1655.261719 964.953125 1655.261719 983.582031 C 1655.261719 1002.210938 1670.347656 1017.300781 1688.976562 1017.300781 C 1707.609375 1017.300781 1722.695312 1002.210938 1722.695312 983.582031 C 1722.695312 964.953125 1707.609375 949.867188 1688.976562 949.867188 Z M 1688.976562 949.867188 " clip-rule="nonzero"/></clipPath><clipPath id="a0b79aea1b"><path d="M 1688.976562 949.867188 C 1670.347656 949.867188 1655.261719 964.953125 1655.261719 983.582031 C 1655.261719 1002.210938 1670.347656 1017.300781 1688.976562 1017.300781 C 1707.609375 1017.300781 1722.695312 1002.210938 1722.695312 983.582031 C 1722.695312 964.953125 1707.609375 949.867188 1688.976562 949.867188 Z M 1688.976562 949.867188 " clip-rule="nonzero"/></clipPath><clipPath id="28e2f1a7fe"><path d="M 2299.605469 426.308594 L 2367.066406 426.308594 L 2367.066406 493.769531 L 2299.605469 493.769531 Z M 2299.605469 426.308594 " clip-rule="nonzero"/></clipPath><clipPath id="85f0f83be3"><path d="M 2333.320312 426.308594 C 2314.722656 426.308594 2299.605469 441.421875 2299.605469 460.054688 C 2299.605469 478.683594 2314.722656 493.769531 2333.320312 493.769531 C 2351.953125 493.769531 2367.066406 478.683594 2367.066406 460.054688 C 2367.066406 441.421875 2351.953125 426.308594 2333.320312 426.308594 Z M 2333.320312 426.308594 " clip-rule="nonzero"/></clipPath><clipPath id="7c330e2cce"><path d="M 2333.320312 426.308594 C 2314.722656 426.308594 2299.605469 441.421875 2299.605469 460.054688 C 2299.605469 478.683594 2314.722656 493.769531 2333.320312 493.769531 C 2351.953125 493.769531 2367.066406 478.683594 2367.066406 460.054688 C 2367.066406 441.421875 2351.953125 426.308594 2333.320312 426.308594 Z M 2333.320312 426.308594 " clip-rule="nonzero"/></clipPath><clipPath id="c05486076a"><path d="M 1117.117188 848.242188 L 1156.738281 848.242188 L 1156.738281 878.179688 L 1117.117188 878.179688 Z M 1117.117188 848.242188 " clip-rule="nonzero"/></clipPath><clipPath id="016a74a8b6"><path d="M 1118.0625 858.222656 C 1117.5 859.757812 1117.117188 861.5 1117.117188 863.210938 C 1117.117188 864.921875 1117.441406 866.578125 1118.003906 868.082031 C 1118.03125 868.113281 1118.03125 868.171875 1118.03125 868.199219 C 1120.277344 873.898438 1126.210938 878.089844 1133.121094 878.179688 L 1156.738281 878.179688 L 1156.738281 848.242188 L 1133.148438 848.242188 C 1126.179688 848.332031 1120.246094 852.464844 1118.0625 858.222656 Z M 1118.0625 858.222656 " clip-rule="nonzero"/></clipPath><clipPath id="9cab8d3c80"><path d="M 1118.0625 858.222656 C 1117.5 859.757812 1117.117188 861.5 1117.117188 863.210938 C 1117.117188 864.921875 1117.441406 866.578125 1118.003906 868.082031 C 1118.03125 868.113281 1118.03125 868.171875 1118.03125 868.199219 C 1120.277344 873.898438 1126.210938 878.089844 1133.121094 878.179688 L 1156.738281 878.179688 L 1156.738281 848.242188 L 1133.148438 848.242188 C 1126.179688 848.332031 1120.246094 852.464844 1118.0625 858.222656 Z M 1118.0625 858.222656 " clip-rule="nonzero"/></clipPath><clipPath id="182b71cd32"><path d="M 980.625 312.164062 L 1558.832031 312.164062 L 1558.832031 1015.085938 L 980.625 1015.085938 Z M 980.625 312.164062 " clip-rule="nonzero"/></clipPath><clipPath id="98815180d5"><path d="M 1538.875 546.824219 C 1550.921875 582.785156 1558.832031 623.914062 1558.832031 664.15625 C 1558.832031 704.429688 1552.042969 743.132812 1539.996094 778.828125 C 1539.644531 779.597656 1539.644531 780.363281 1539.257812 781.101562 C 1491.074219 915.175781 1363.855469 1013.875 1221.222656 1015.792969 L 1014.195312 1015.792969 C 1005.160156 1015.792969 996.507812 1012.191406 990.132812 1005.8125 C 983.753906 999.4375 980.183594 990.785156 980.183594 981.78125 L 980.183594 346.175781 C 980.183594 337.144531 983.753906 328.492188 990.132812 322.113281 C 996.507812 315.738281 1005.160156 312.164062 1014.195312 312.164062 L 1221.042969 312.164062 C 1364.621094 314.054688 1491.84375 411.277344 1538.875 546.824219 Z M 1538.875 546.824219 " clip-rule="nonzero"/></clipPath><clipPath id="df5c1b823c"><path d="M 1018.800781 924.414062 L 1117.175781 924.414062 L 1117.175781 1031.292969 L 1018.800781 1031.292969 Z M 1018.800781 924.414062 " clip-rule="nonzero"/></clipPath><clipPath id="41925537b1"><path d="M 1097.277344 970 L 1164.742188 970 L 1164.742188 1037.433594 L 1097.277344 1037.433594 Z M 1097.277344 970 " clip-rule="nonzero"/></clipPath><clipPath id="f5ff9de456"><path d="M 1131.023438 970 C 1112.394531 970 1097.277344 985.089844 1097.277344 1003.71875 C 1097.277344 1022.347656 1112.394531 1037.433594 1131.023438 1037.433594 C 1149.625 1037.433594 1164.742188 1022.347656 1164.742188 1003.71875 C 1164.742188 985.089844 1149.625 970 1131.023438 970 Z M 1131.023438 970 " clip-rule="nonzero"/></clipPath><clipPath id="857f0fd4c6"><path d="M 1131.023438 970 C 1112.394531 970 1097.277344 985.089844 1097.277344 1003.71875 C 1097.277344 1022.347656 1112.394531 1037.433594 1131.023438 1037.433594 C 1149.625 1037.433594 1164.742188 1022.347656 1164.742188 1003.71875 C 1164.742188 985.089844 1149.625 970 1131.023438 970 Z M 1131.023438 970 " clip-rule="nonzero"/></clipPath><clipPath id="ac19b13a96"><rect x="0" width="2835" y="0" height="1417"/></clipPath></defs><g clip-path="url(#79aed579b0)"><g transform="matrix(1, 0, 0, 1, 0, 0)"><g clip-path="url(#ac19b13a96)"><g clip-path="url(#4be55e1fa8)"><g clip-path="url(#8cea076c98)"><path stroke-linecap="butt" transform="matrix(0, 5.66871, -5.668709, 0, 1417.606535, 450.99963)" fill="none" stroke-linejoin="miter" d="M 25.299996 1.758056 C 29.175436 0.696169 33.612485 -0.00187911 37.950995 -0.00187911 C 42.290193 -0.00187911 46.466766 0.59694 50.316021 1.659517 C 50.393888 1.690526 50.477268 1.690526 50.560648 1.727047 C 65.008793 5.977354 75.654541 17.195737 75.857822 29.763358 L 75.857822 50.56078 L -0.00200208 50.56078 L -0.00200208 29.779207 C 0.206792 17.128206 10.68578 5.909134 25.299996 1.758056 Z M 25.299996 1.758056 " stroke="#004aad" stroke-width="12" stroke-opacity="1" stroke-miterlimit="4"/></g></g><g clip-path="url(#3c7202376f)"><path fill="#ffffff" d="M 1097.277344 485.414062 L 1190.25 485.414062 L 1190.25 847.859375 L 1097.277344 847.859375 Z M 1097.277344 485.414062 " fill-opacity="1" fill-rule="nonzero"/></g><g clip-path="url(#b12f71625d)"><g clip-path="url(#c1b20521da)"><g clip-path="url(#3095bb474c)"><path fill="#004aad" d="M 1097.277344 693.445312 L 1164.742188 693.445312 L 1164.742188 760.910156 L 1097.277344 760.910156 Z M 1097.277344 693.445312 " fill-opacity="1" fill-rule="nonzero"/></g></g></g><g clip-path="url(#539510edc5)"><g clip-path="url(#5401464b0b)"><g clip-path="url(#1746875d65)"><path fill="#004aad" d="M 2299.605469 963.859375 L 2367.066406 963.859375 L 2367.066406 1031.292969 L 2299.605469 1031.292969 Z M 2299.605469 963.859375 " fill-opacity="1" fill-rule="nonzero"/></g></g></g><g clip-path="url(#0f0ce0f725)"><g clip-path="url(#ab7b843f69)"><g clip-path="url(#cdee54d83f)"><path fill="#004aad" d="M 1790.304688 313.613281 L 1857.769531 313.613281 L 1857.769531 381.074219 L 1790.304688 381.074219 Z M 1790.304688 313.613281 " fill-opacity="1" fill-rule="nonzero"/></g></g></g><g clip-path="url(#8855588a3b)"><g clip-path="url(#7b22a56e9c)"><g clip-path="url(#a0b79aea1b)"><path fill="#004aad" d="M 1655.261719 949.867188 L 1722.695312 949.867188 L 1722.695312 1017.300781 L 1655.261719 1017.300781 Z M 1655.261719 949.867188 " fill-opacity="1" fill-rule="nonzero"/></g></g></g><g clip-path="url(#28e2f1a7fe)"><g clip-path="url(#85f0f83be3)"><g clip-path="url(#7c330e2cce)"><path fill="#004aad" d="M 2299.605469 426.308594 L 2367.066406 426.308594 L 2367.066406 493.769531 L 2299.605469 493.769531 Z M 2299.605469 426.308594 " fill-opacity="1" fill-rule="nonzero"/></g></g></g><path stroke-linecap="round" transform="matrix(0.00000000989379, 5.66871, -5.668709, 0.00000000989379, 2302.938253, 589.198506)" fill="none" stroke-linejoin="miter" d="M 1.999175 1.999872 L 24.327062 1.999872 " stroke="#004aad" stroke-width="4" stroke-opacity="1" stroke-miterlimit="4"/><path stroke-linecap="round" transform="matrix(0.00000000989379, 5.66871, -5.668709, 0.00000000989379, 1705.384431, 313.61178)" fill="none" stroke-linejoin="miter" d="M 2.999873 2.998516 L 113.864768 2.998516 " stroke="#004aad" stroke-width="6" stroke-opacity="1" stroke-miterlimit="4"/><path stroke-linecap="round" transform="matrix(0.00000000989379, 5.66871, -5.668709, 0.00000000989379, 1842.646364, 353.383256)" fill="none" stroke-linejoin="miter" d="M 2.999529 2.998553 L 113.864424 2.998554 " stroke="#004aad" stroke-width="6" stroke-opacity="1" stroke-miterlimit="4"/><path stroke-linecap="round" transform="matrix(0.00000000989379, 5.66871, -5.668709, 0.00000000989379, 1017.88495, 313.61295)" fill="none" stroke-linejoin="miter" d="M 2.999666 2.999985 L 120.880184 2.999985 " stroke="#004aad" stroke-width="6" stroke-opacity="1" stroke-miterlimit="4"/><path stroke-linecap="round" transform="matrix(0, 5.66871, -5.668709, 0, 2025.160077, 313.61295)" fill="none" stroke-linejoin="miter" d="M 2.999666 2.997527 L 120.880184 2.997527 " stroke="#004aad" stroke-width="6" stroke-opacity="1" stroke-miterlimit="4"/><path stroke-linecap="round" transform="matrix(0, 5.66871, -5.668709, 0, 1149.399687, 451.02271)" fill="none" stroke-linejoin="miter" d="M 2.999047 3.001896 L 47.702367 3.001896 " stroke="#004aad" stroke-width="6" stroke-opacity="1" stroke-miterlimit="4"/><path stroke-linecap="round" transform="matrix(0, 5.66871, -5.668709, 0, 2161.182488, 451.019328)" fill="none" stroke-linejoin="miter" d="M 2.999644 2.998035 L 22.999785 2.998035 " stroke="#004aad" stroke-width="6" stroke-opacity="1" stroke-miterlimit="4"/><path stroke-linecap="round" transform="matrix(0, 5.66871, -5.668709, 0, 2161.182488, 725.814131)" fill="none" stroke-linejoin="miter" d="M 2.997942 2.998035 L 22.998083 2.998035 " stroke="#004aad" stroke-width="6" stroke-opacity="1" stroke-miterlimit="4"/><path stroke-linecap="round" transform="matrix(0, 5.66871, -5.668709, 0, 2308.6093, 589.195915)" fill="none" stroke-linejoin="miter" d="M 2.999502 3.000284 L 23.999512 3.000284 " stroke="#004aad" stroke-width="6" stroke-opacity="1" stroke-miterlimit="4"/><path stroke-linecap="round" transform="matrix(5.668595, 0.0352102, -0.0352102, 5.668596, 2126.182268, 718.394677)" fill="none" stroke-linejoin="miter" d="M 3.002008 3.001669 L 29.200348 3.000878 " stroke="#004aad" stroke-width="6" stroke-opacity="1" stroke-miterlimit="4"/><path stroke-linecap="round" transform="matrix(5.668482, -0.0506336, 0.0506336, 5.668483, 2125.924527, 581.35157)" fill="none" stroke-linejoin="miter" d="M 3.002104 2.998978 L 29.200974 2.998699 " stroke="#004aad" stroke-width="6" stroke-opacity="1" stroke-miterlimit="4"/><path stroke-linecap="round" transform="matrix(5.668641, 0.0275186, -0.0275186, 5.668642, 2132.961509, 843.675358)" fill="none" stroke-linejoin="miter" d="M 3.000323 2.999624 L 38.198083 3.000341 " stroke="#004aad" stroke-width="6" stroke-opacity="1" stroke-miterlimit="4"/><path stroke-linecap="round" transform="matrix(5.668709, 0, 0, 5.66871, 2127.362148, 443.673191)" fill="none" stroke-linejoin="miter" d="M 2.999119 2.998686 L 31.598416 2.998686 " stroke="#004aad" stroke-width="6" stroke-opacity="1" stroke-miterlimit="4"/><path stroke-linecap="round" transform="matrix(5.668709, 0.000000000000005676, -0.000000000000005676, 5.66871, 2001.512964, 978.78753)" fill="none" stroke-linejoin="miter" d="M 3.002145 3.001945 L 53.799094 3.001945 " stroke="#004aad" stroke-width="6" stroke-opacity="1" stroke-miterlimit="4"/><path stroke-linecap="round" transform="matrix(5.668709, 0.000000000000002502, -0.000000000000002502, 5.66871, 2001.512964, 313.599362)" fill="none" stroke-linejoin="miter" d="M 3.002145 3.002063 L 61.372192 3.002063 " stroke="#004aad" stroke-width="6" stroke-opacity="1" stroke-miterlimit="4"/><g clip-path="url(#c05486076a)"><g clip-path="url(#016a74a8b6)"><g clip-path="url(#9cab8d3c80)"><path fill="#004aad" d="M 1117.117188 848.242188 L 1156.738281 848.242188 L 1156.738281 878.179688 L 1117.117188 878.179688 Z M 1117.117188 848.242188 " fill-opacity="1" fill-rule="nonzero"/></g></g></g><g clip-path="url(#182b71cd32)"><g clip-path="url(#98815180d5)"><path stroke-linecap="butt" transform="matrix(0, 5.66871, -5.668709, 0, 1558.826713, 312.157878)" fill="none" stroke-linejoin="miter" d="M 41.39678 3.519622 C 47.74054 1.394469 54.995966 -0.000938246 62.094969 -0.000938246 C 69.199485 -0.000938246 76.026986 1.1967 82.323888 3.321853 C 82.459639 3.383871 82.5947 3.383871 82.724938 3.452091 C 106.376566 11.952015 123.787797 34.394294 124.12614 59.555722 L 124.12614 96.076796 C 124.12614 97.670661 123.490799 99.196995 122.365516 100.321589 C 121.240921 101.446873 119.714588 102.076701 118.126236 102.076701 L 6.000996 102.076701 C 4.40782 102.076701 2.881486 101.446873 1.756203 100.321589 C 0.631608 99.196995 0.00109097 97.670661 0.00109097 96.076796 L 0.00109097 59.58742 C 0.33461 34.259232 17.485365 11.816264 41.39678 3.519622 Z M 41.39678 3.519622 " stroke="#004aad" stroke-width="12" stroke-opacity="1" stroke-miterlimit="4"/></g></g><g clip-path="url(#df5c1b823c)"><path fill="#ffffff" d="M 1018.800781 924.414062 L 1117.175781 924.414062 L 1117.175781 1031.234375 L 1018.800781 1031.234375 Z M 1018.800781 924.414062 " fill-opacity="1" fill-rule="nonzero"/></g><g clip-path="url(#41925537b1)"><g clip-path="url(#f5ff9de456)"><g clip-path="url(#857f0fd4c6)"><path fill="#004aad" d="M 1097.277344 970 L 1164.742188 970 L 1164.742188 1037.433594 L 1097.277344 1037.433594 Z M 1097.277344 970 " fill-opacity="1" fill-rule="nonzero"/></g></g></g><path fill="#737373" d="M 425.839844 1337.949219 C 420.023438 1337.242188 414.355469 1334.46875 408.832031 1329.683594 C 403.34375 1324.960938 398.765625 1314.152344 395.132812 1297.324219 C 396.550781 1282.679688 400.773438 1261.601562 407.769531 1234.140625 C 414.710938 1206.65625 423.476562 1177.160156 434.105469 1145.6875 C 444.734375 1114.183594 455.363281 1084.15625 465.992188 1055.578125 C 476.621094 1027.085938 485.597656 1004.027344 492.917969 986.371094 C 525.101562 914.65625 550.730469 858.296875 569.800781 817.257812 C 588.84375 776.246094 604.9375 743.296875 618.101562 718.40625 C 625.425781 705.890625 637.292969 695.261719 653.769531 686.519531 C 670.304688 677.722656 683.675781 673.292969 693.921875 673.292969 C 704.933594 673.292969 710.457031 676.957031 710.457031 684.277344 C 710.457031 690.183594 706.796875 699.011719 699.472656 710.730469 C 692.859375 720.179688 683.675781 735 671.957031 755.136719 C 660.207031 775.300781 647.570312 797.859375 634.046875 822.808594 C 620.496094 847.695312 607.503906 872.230469 595.074219 896.382812 C 578.925781 927.085938 570.863281 953.835938 570.863281 976.570312 C 570.863281 994.847656 576.355469 1003.96875 587.398438 1003.96875 C 593.214844 1003.96875 600.890625 1000.722656 610.425781 994.167969 C 619.933594 987.554688 631.269531 976.925781 644.4375 962.28125 C 650.34375 956.375 659.320312 944.65625 671.367188 927.085938 C 683.472656 909.550781 697.230469 889.589844 712.582031 867.210938 C 727.992188 844.863281 743.050781 822.894531 757.695312 801.3125 C 772.339844 779.761719 784.414062 761.984375 793.953125 748.050781 C 811.488281 714.363281 830.148438 691.660156 849.929688 679.90625 C 869.683594 668.1875 893.09375 662.3125 920.199219 662.3125 C 912.875 666.03125 904.078125 675.539062 893.863281 690.890625 C 883.617188 706.242188 872.988281 722.011719 861.976562 738.128906 C 854.652344 749.171875 846.5625 763.460938 837.765625 781 C 829.027344 798.566406 820.226562 817.078125 811.429688 836.507812 C 802.691406 855.875 795.191406 874.003906 788.992188 890.832031 C 782.761719 907.691406 778.539062 920.886719 776.355469 930.394531 C 772.636719 946.542969 770.804688 959.328125 770.804688 968.777344 C 770.804688 986.433594 775.203125 995.230469 784.03125 995.230469 C 786.925781 995.230469 790.585938 994.136719 795.015625 991.921875 C 803.046875 988.234375 810.722656 983.65625 818.042969 978.222656 C 825.367188 972.730469 832.6875 967.003906 840.011719 961.097656 C 845.117188 957.496094 848.070312 955.667969 848.867188 955.667969 C 852.46875 955.667969 853.382812 959.742188 851.582031 967.832031 C 849.753906 975.863281 845.207031 983.890625 837.882812 991.921875 C 823.949219 1006.566406 808.003906 1017.550781 790.054688 1024.871094 C 772.101562 1032.195312 756.898438 1035.855469 744.46875 1035.855469 C 719.578125 1035.855469 707.148438 1020.472656 707.148438 989.679688 C 707.148438 975.035156 709.6875 958.027344 714.824219 938.660156 C 719.933594 919.234375 726.902344 898.152344 735.730469 875.476562 C 720.289062 899.660156 703.253906 923.839844 684.59375 947.992188 C 665.933594 972.171875 646.859375 992.128906 627.433594 1007.867188 C 608.066406 1023.632812 589.199219 1031.484375 570.863281 1031.484375 C 555.511719 1031.484375 544.175781 1027.824219 536.851562 1020.503906 C 512.671875 1076.15625 490.171875 1132.34375 469.300781 1189.027344 C 448.457031 1245.773438 433.960938 1295.433594 425.839844 1337.949219 Z M 425.839844 1337.949219 " fill-opacity="1" fill-rule="nonzero"/></g></g></g></svg>