<svg xmlns="http://www.w3.org/2000/svg" xmlns:xlink="http://www.w3.org/1999/xlink" width="500" zoomAndPan="magnify" viewBox="0 0 375 374.999991" height="500" preserveAspectRatio="xMidYMid meet" version="1.0"><defs><g/><clipPath id="70d11994c7"><path d="M 149.242188 153.394531 L 187.492188 153.394531 L 187.492188 210.394531 L 149.242188 210.394531 Z M 149.242188 153.394531 " clip-rule="nonzero"/></clipPath><clipPath id="3dce636a50"><path d="M 186.171875 172.371094 C 186.96875 175.277344 187.492188 178.605469 187.492188 181.859375 C 187.492188 185.113281 187.042969 188.246094 186.246094 191.132812 C 186.222656 191.191406 186.222656 191.253906 186.195312 191.316406 C 183.007812 202.152344 174.59375 210.136719 165.167969 210.289062 L 149.570312 210.289062 L 149.570312 153.394531 L 165.15625 153.394531 C 174.644531 153.550781 183.058594 161.410156 186.171875 172.371094 Z M 186.171875 172.371094 " clip-rule="nonzero"/></clipPath><clipPath id="0ebf188be8"><path d="M 145.109375 157.949219 L 157.410156 157.949219 L 157.410156 205.894531 L 145.109375 205.894531 Z M 145.109375 157.949219 " clip-rule="nonzero"/></clipPath><clipPath id="0aec10e14d"><path d="M 0.109375 0.949219 L 12.410156 0.949219 L 12.410156 48.894531 L 0.109375 48.894531 Z M 0.109375 0.949219 " clip-rule="nonzero"/></clipPath><clipPath id="c31b820293"><rect x="0" width="13" y="0" height="49"/></clipPath><clipPath id="cd59b29be9"><path d="M 145.109375 185.472656 L 154.035156 185.472656 L 154.035156 194.398438 L 145.109375 194.398438 Z M 145.109375 185.472656 " clip-rule="nonzero"/></clipPath><clipPath id="9f32ccae9e"><path d="M 149.574219 185.472656 C 147.109375 185.472656 145.109375 187.472656 145.109375 189.9375 C 145.109375 192.402344 147.109375 194.398438 149.574219 194.398438 C 152.035156 194.398438 154.035156 192.402344 154.035156 189.9375 C 154.035156 187.472656 152.035156 185.472656 149.574219 185.472656 Z M 149.574219 185.472656 " clip-rule="nonzero"/></clipPath><clipPath id="89fcc38622"><path d="M 0.109375 0.472656 L 9.035156 0.472656 L 9.035156 9.398438 L 0.109375 9.398438 Z M 0.109375 0.472656 " clip-rule="nonzero"/></clipPath><clipPath id="4928f6a747"><path d="M 4.574219 0.472656 C 2.109375 0.472656 0.109375 2.472656 0.109375 4.9375 C 0.109375 7.402344 2.109375 9.398438 4.574219 9.398438 C 7.035156 9.398438 9.035156 7.402344 9.035156 4.9375 C 9.035156 2.472656 7.035156 0.472656 4.574219 0.472656 Z M 4.574219 0.472656 " clip-rule="nonzero"/></clipPath><clipPath id="8b8974448b"><rect x="0" width="10" y="0" height="10"/></clipPath><clipPath id="740e3acf0a"><path d="M 304.183594 221.25 L 313.109375 221.25 L 313.109375 230.171875 L 304.183594 230.171875 Z M 304.183594 221.25 " clip-rule="nonzero"/></clipPath><clipPath id="0c3694a7f8"><path d="M 308.644531 221.25 C 306.183594 221.25 304.183594 223.246094 304.183594 225.710938 C 304.183594 228.175781 306.183594 230.171875 308.644531 230.171875 C 311.109375 230.171875 313.109375 228.175781 313.109375 225.710938 C 313.109375 223.246094 311.109375 221.25 308.644531 221.25 Z M 308.644531 221.25 " clip-rule="nonzero"/></clipPath><clipPath id="3779af7019"><path d="M 0.183594 0.25 L 9.109375 0.25 L 9.109375 9.171875 L 0.183594 9.171875 Z M 0.183594 0.25 " clip-rule="nonzero"/></clipPath><clipPath id="1286dd6423"><path d="M 4.644531 0.25 C 2.183594 0.25 0.183594 2.246094 0.183594 4.710938 C 0.183594 7.175781 2.183594 9.171875 4.644531 9.171875 C 7.109375 9.171875 9.109375 7.175781 9.109375 4.710938 C 9.109375 2.246094 7.109375 0.25 4.644531 0.25 Z M 4.644531 0.25 " clip-rule="nonzero"/></clipPath><clipPath id="3a33519d4f"><rect x="0" width="10" y="0" height="10"/></clipPath><clipPath id="1d0b7aa903"><path d="M 236.800781 135.21875 L 245.726562 135.21875 L 245.726562 144.144531 L 236.800781 144.144531 Z M 236.800781 135.21875 " clip-rule="nonzero"/></clipPath><clipPath id="3125309670"><path d="M 241.265625 135.21875 C 238.800781 135.21875 236.800781 137.21875 236.800781 139.683594 C 236.800781 142.148438 238.800781 144.144531 241.265625 144.144531 C 243.730469 144.144531 245.726562 142.148438 245.726562 139.683594 C 245.726562 137.21875 243.730469 135.21875 241.265625 135.21875 Z M 241.265625 135.21875 " clip-rule="nonzero"/></clipPath><clipPath id="94f5829009"><path d="M 0.800781 0.21875 L 9.726562 0.21875 L 9.726562 9.144531 L 0.800781 9.144531 Z M 0.800781 0.21875 " clip-rule="nonzero"/></clipPath><clipPath id="0d0be75e79"><path d="M 5.265625 0.21875 C 2.800781 0.21875 0.800781 2.21875 0.800781 4.683594 C 0.800781 7.148438 2.800781 9.144531 5.265625 9.144531 C 7.730469 9.144531 9.726562 7.148438 9.726562 4.683594 C 9.726562 2.21875 7.730469 0.21875 5.265625 0.21875 Z M 5.265625 0.21875 " clip-rule="nonzero"/></clipPath><clipPath id="5bed701020"><rect x="0" width="10" y="0" height="10"/></clipPath><clipPath id="06f67ce916"><path d="M 218.933594 219.398438 L 227.855469 219.398438 L 227.855469 228.320312 L 218.933594 228.320312 Z M 218.933594 219.398438 " clip-rule="nonzero"/></clipPath><clipPath id="f270c8dc19"><path d="M 223.394531 219.398438 C 220.929688 219.398438 218.933594 221.394531 218.933594 223.859375 C 218.933594 226.324219 220.929688 228.320312 223.394531 228.320312 C 225.859375 228.320312 227.855469 226.324219 227.855469 223.859375 C 227.855469 221.394531 225.859375 219.398438 223.394531 219.398438 Z M 223.394531 219.398438 " clip-rule="nonzero"/></clipPath><clipPath id="73dd6d5426"><path d="M 0.933594 0.398438 L 9.855469 0.398438 L 9.855469 9.320312 L 0.933594 9.320312 Z M 0.933594 0.398438 " clip-rule="nonzero"/></clipPath><clipPath id="dc8fb1504c"><path d="M 5.394531 0.398438 C 2.929688 0.398438 0.933594 2.394531 0.933594 4.859375 C 0.933594 7.324219 2.929688 9.320312 5.394531 9.320312 C 7.859375 9.320312 9.855469 7.324219 9.855469 4.859375 C 9.855469 2.394531 7.859375 0.398438 5.394531 0.398438 Z M 5.394531 0.398438 " clip-rule="nonzero"/></clipPath><clipPath id="e76ef9a659"><rect x="0" width="10" y="0" height="10"/></clipPath><clipPath id="da95d965a3"><path d="M 304.183594 150.128906 L 313.109375 150.128906 L 313.109375 159.054688 L 304.183594 159.054688 Z M 304.183594 150.128906 " clip-rule="nonzero"/></clipPath><clipPath id="f814d332ce"><path d="M 308.644531 150.128906 C 306.183594 150.128906 304.183594 152.128906 304.183594 154.59375 C 304.183594 157.058594 306.183594 159.054688 308.644531 159.054688 C 311.109375 159.054688 313.109375 157.058594 313.109375 154.59375 C 313.109375 152.128906 311.109375 150.128906 308.644531 150.128906 Z M 308.644531 150.128906 " clip-rule="nonzero"/></clipPath><clipPath id="2ec8959780"><path d="M 0.183594 0.128906 L 9.109375 0.128906 L 9.109375 9.054688 L 0.183594 9.054688 Z M 0.183594 0.128906 " clip-rule="nonzero"/></clipPath><clipPath id="f70a4bd782"><path d="M 4.644531 0.128906 C 2.183594 0.128906 0.183594 2.128906 0.183594 4.59375 C 0.183594 7.058594 2.183594 9.054688 4.644531 9.054688 C 7.109375 9.054688 9.109375 7.058594 9.109375 4.59375 C 9.109375 2.128906 7.109375 0.128906 4.644531 0.128906 Z M 4.644531 0.128906 " clip-rule="nonzero"/></clipPath><clipPath id="ef72d6763e"><rect x="0" width="10" y="0" height="10"/></clipPath><clipPath id="a6b3a9d4c5"><path d="M 147.734375 205.953125 L 152.976562 205.953125 L 152.976562 209.914062 L 147.734375 209.914062 Z M 147.734375 205.953125 " clip-rule="nonzero"/></clipPath><clipPath id="f51bd7a45f"><path d="M 147.859375 207.273438 C 147.785156 207.476562 147.734375 207.707031 147.734375 207.933594 C 147.734375 208.160156 147.777344 208.378906 147.851562 208.578125 C 147.855469 208.582031 147.855469 208.589844 147.855469 208.59375 C 148.152344 209.347656 148.9375 209.902344 149.851562 209.914062 L 152.976562 209.914062 L 152.976562 205.953125 L 149.855469 205.953125 C 148.933594 205.964844 148.148438 206.511719 147.859375 207.273438 Z M 147.859375 207.273438 " clip-rule="nonzero"/></clipPath><clipPath id="9c69f6ee76"><path d="M 0.734375 0.953125 L 5.976562 0.953125 L 5.976562 4.914062 L 0.734375 4.914062 Z M 0.734375 0.953125 " clip-rule="nonzero"/></clipPath><clipPath id="a72f340ada"><path d="M 0.859375 2.273438 C 0.785156 2.476562 0.734375 2.707031 0.734375 2.933594 C 0.734375 3.160156 0.777344 3.378906 0.851562 3.578125 C 0.855469 3.582031 0.855469 3.589844 0.855469 3.59375 C 1.152344 4.347656 1.9375 4.902344 2.851562 4.914062 L 5.976562 4.914062 L 5.976562 0.953125 L 2.855469 0.953125 C 1.933594 0.964844 1.148438 1.511719 0.859375 2.273438 Z M 0.859375 2.273438 " clip-rule="nonzero"/></clipPath><clipPath id="371db13b11"><rect x="0" width="6" y="0" height="5"/></clipPath><clipPath id="5a2f4dd7bb"><path d="M 129.675781 135.027344 L 206.175781 135.027344 L 206.175781 228.027344 L 129.675781 228.027344 Z M 129.675781 135.027344 " clip-rule="nonzero"/></clipPath><clipPath id="cd9e865b08"><path d="M 203.535156 166.074219 C 205.128906 170.832031 206.175781 176.273438 206.175781 181.597656 C 206.175781 186.925781 205.277344 192.046875 203.683594 196.769531 C 203.636719 196.871094 203.636719 196.972656 203.585938 197.070312 C 197.210938 214.808594 180.378906 227.867188 161.507812 228.121094 L 134.117188 228.121094 C 132.921875 228.121094 131.777344 227.644531 130.933594 226.800781 C 130.089844 225.957031 129.617188 224.8125 129.617188 223.621094 L 129.617188 139.527344 C 129.617188 138.332031 130.089844 137.1875 130.933594 136.34375 C 131.777344 135.5 132.921875 135.027344 134.117188 135.027344 L 161.484375 135.027344 C 180.480469 135.277344 197.3125 148.140625 203.535156 166.074219 Z M 203.535156 166.074219 " clip-rule="nonzero"/></clipPath><clipPath id="3133c54eef"><path d="M 134.726562 216.03125 L 147.742188 216.03125 L 147.742188 230.171875 L 134.726562 230.171875 Z M 134.726562 216.03125 " clip-rule="nonzero"/></clipPath><clipPath id="9c45b16558"><path d="M 0.726562 0.03125 L 13.742188 0.03125 L 13.742188 14.171875 L 0.726562 14.171875 Z M 0.726562 0.03125 " clip-rule="nonzero"/></clipPath><clipPath id="cfc701f13f"><rect x="0" width="14" y="0" height="15"/></clipPath><clipPath id="06b2cc1094"><path d="M 145.109375 222.0625 L 154.035156 222.0625 L 154.035156 230.984375 L 145.109375 230.984375 Z M 145.109375 222.0625 " clip-rule="nonzero"/></clipPath><clipPath id="5301990f46"><path d="M 149.574219 222.0625 C 147.109375 222.0625 145.109375 224.058594 145.109375 226.523438 C 145.109375 228.988281 147.109375 230.984375 149.574219 230.984375 C 152.035156 230.984375 154.035156 228.988281 154.035156 226.523438 C 154.035156 224.058594 152.035156 222.0625 149.574219 222.0625 Z M 149.574219 222.0625 " clip-rule="nonzero"/></clipPath><clipPath id="88380e323d"><path d="M 0.109375 0.0625 L 9.035156 0.0625 L 9.035156 8.984375 L 0.109375 8.984375 Z M 0.109375 0.0625 " clip-rule="nonzero"/></clipPath><clipPath id="142711a801"><path d="M 4.574219 0.0625 C 2.109375 0.0625 0.109375 2.058594 0.109375 4.523438 C 0.109375 6.988281 2.109375 8.984375 4.574219 8.984375 C 7.035156 8.984375 9.035156 6.988281 9.035156 4.523438 C 9.035156 2.058594 7.035156 0.0625 4.574219 0.0625 Z M 4.574219 0.0625 " clip-rule="nonzero"/></clipPath><clipPath id="56d370604b"><rect x="0" width="10" y="0" height="9"/></clipPath></defs><g clip-path="url(#70d11994c7)"><g clip-path="url(#3dce636a50)"><path stroke-linecap="butt" transform="matrix(0, 0.75, -0.75, 0, 187.490661, 153.395894)" fill="none" stroke-linejoin="miter" d="M 25.300268 1.758381 C 29.175268 0.695881 33.612769 -0.00203535 37.951311 -0.00203535 C 42.289853 -0.00203535 46.466936 0.596923 50.315895 1.659423 C 50.39402 1.690673 50.477353 1.690673 50.560686 1.727131 C 65.008604 5.977132 75.654438 17.195882 75.857563 29.763592 L 75.857563 50.560468 L -0.0018169 50.560468 L -0.0018169 29.779217 C 0.206516 17.128174 10.685684 5.909423 25.300268 1.758381 Z M 25.300268 1.758381 " stroke="#004aad" stroke-width="12" stroke-opacity="1" stroke-miterlimit="4"/></g></g><g clip-path="url(#0ebf188be8)"><g transform="matrix(1, 0, 0, 1, 145, 157)"><g clip-path="url(#c31b820293)"><g clip-path="url(#0aec10e14d)"><path fill="#ffffff" d="M 0.109375 0.949219 L 12.410156 0.949219 L 12.410156 48.902344 L 0.109375 48.902344 Z M 0.109375 0.949219 " fill-opacity="1" fill-rule="nonzero"/></g></g></g></g><g clip-path="url(#cd59b29be9)"><g clip-path="url(#9f32ccae9e)"><g transform="matrix(1, 0, 0, 1, 145, 185)"><g clip-path="url(#8b8974448b)"><g clip-path="url(#89fcc38622)"><g clip-path="url(#4928f6a747)"><path fill="#004aad" d="M 0.109375 0.472656 L 9.035156 0.472656 L 9.035156 9.398438 L 0.109375 9.398438 Z M 0.109375 0.472656 " fill-opacity="1" fill-rule="nonzero"/></g></g></g></g></g></g><g clip-path="url(#740e3acf0a)"><g clip-path="url(#0c3694a7f8)"><g transform="matrix(1, 0, 0, 1, 304, 221)"><g clip-path="url(#3a33519d4f)"><g clip-path="url(#3779af7019)"><g clip-path="url(#1286dd6423)"><path fill="#004aad" d="M 0.183594 0.25 L 9.109375 0.25 L 9.109375 9.171875 L 0.183594 9.171875 Z M 0.183594 0.25 " fill-opacity="1" fill-rule="nonzero"/></g></g></g></g></g></g><g clip-path="url(#1d0b7aa903)"><g clip-path="url(#3125309670)"><g transform="matrix(1, 0, 0, 1, 236, 135)"><g clip-path="url(#5bed701020)"><g clip-path="url(#94f5829009)"><g clip-path="url(#0d0be75e79)"><path fill="#004aad" d="M 0.800781 0.21875 L 9.726562 0.21875 L 9.726562 9.144531 L 0.800781 9.144531 Z M 0.800781 0.21875 " fill-opacity="1" fill-rule="nonzero"/></g></g></g></g></g></g><g clip-path="url(#06f67ce916)"><g clip-path="url(#f270c8dc19)"><g transform="matrix(1, 0, 0, 1, 218, 219)"><g clip-path="url(#e76ef9a659)"><g clip-path="url(#73dd6d5426)"><g clip-path="url(#dc8fb1504c)"><path fill="#004aad" d="M 0.933594 0.398438 L 9.855469 0.398438 L 9.855469 9.320312 L 0.933594 9.320312 Z M 0.933594 0.398438 " fill-opacity="1" fill-rule="nonzero"/></g></g></g></g></g></g><g clip-path="url(#da95d965a3)"><g clip-path="url(#f814d332ce)"><g transform="matrix(1, 0, 0, 1, 304, 150)"><g clip-path="url(#ef72d6763e)"><g clip-path="url(#2ec8959780)"><g clip-path="url(#f70a4bd782)"><path fill="#004aad" d="M 0.183594 0.128906 L 9.109375 0.128906 L 9.109375 9.054688 L 0.183594 9.054688 Z M 0.183594 0.128906 " fill-opacity="1" fill-rule="nonzero"/></g></g></g></g></g></g><path stroke-linecap="round" transform="matrix(0.000000001309, 0.75, -0.75, 0.000000001309, 304.6247, 171.680322)" fill="none" stroke-linejoin="miter" d="M 1.999155 1.999601 L 24.327281 1.999601 " stroke="#004aad" stroke-width="4" stroke-opacity="1" stroke-miterlimit="4"/><path stroke-linecap="round" transform="matrix(0.000000001309, 0.75, -0.75, 0.000000001309, 225.565185, 135.218766)" fill="none" stroke-linejoin="miter" d="M 2.999979 2.998372 L 113.86457 2.998372 " stroke="#004aad" stroke-width="6" stroke-opacity="1" stroke-miterlimit="4"/><path stroke-linecap="round" transform="matrix(0.000000001309, 0.75, -0.75, 0.000000001309, 243.725657, 140.480748)" fill="none" stroke-linejoin="miter" d="M 2.999627 2.998793 L 113.864218 2.998793 " stroke="#004aad" stroke-width="6" stroke-opacity="1" stroke-miterlimit="4"/><path stroke-linecap="round" transform="matrix(0.000000001309, 0.75, -0.75, 0.000000001309, 134.605395, 135.218912)" fill="none" stroke-linejoin="miter" d="M 2.999784 2.999902 L 120.88 2.999902 " stroke="#004aad" stroke-width="6" stroke-opacity="1" stroke-miterlimit="4"/><path stroke-linecap="round" transform="matrix(0, 0.75, -0.75, 0, 267.873181, 135.218912)" fill="none" stroke-linejoin="miter" d="M 2.999784 2.997575 L 120.88 2.997575 " stroke="#004aad" stroke-width="6" stroke-opacity="1" stroke-miterlimit="4"/><path stroke-linecap="round" transform="matrix(0, 0.75, -0.75, 0, 152.005497, 153.39894)" fill="none" stroke-linejoin="miter" d="M 2.999331 3.002121 L 47.702459 3.002121 " stroke="#004aad" stroke-width="6" stroke-opacity="1" stroke-miterlimit="4"/><path stroke-linecap="round" transform="matrix(0, 0.75, -0.75, 0, 285.869664, 153.3985)" fill="none" stroke-linejoin="miter" d="M 2.999916 2.998094 L 22.999918 2.998094 " stroke="#004aad" stroke-width="6" stroke-opacity="1" stroke-miterlimit="4"/><path stroke-linecap="round" transform="matrix(0, 0.75, -0.75, 0, 285.869664, 189.755289)" fill="none" stroke-linejoin="miter" d="M 2.998156 2.998094 L 22.998158 2.998094 " stroke="#004aad" stroke-width="6" stroke-opacity="1" stroke-miterlimit="4"/><path stroke-linecap="round" transform="matrix(0, 0.75, -0.75, 0, 305.374993, 171.679998)" fill="none" stroke-linejoin="miter" d="M 2.999587 2.999991 L 23.999588 2.999991 " stroke="#004aad" stroke-width="6" stroke-opacity="1" stroke-miterlimit="4"/><path stroke-linecap="round" transform="matrix(0.749985, 0.0046585, -0.0046585, 0.749985, 281.238941, 188.77367)" fill="none" stroke-linejoin="miter" d="M 3.002199 3.001934 L 29.200615 3.000665 " stroke="#004aad" stroke-width="6" stroke-opacity="1" stroke-miterlimit="4"/><path stroke-linecap="round" transform="matrix(0.74997, -0.00669909, 0.00669909, 0.74997, 281.204868, 170.642142)" fill="none" stroke-linejoin="miter" d="M 3.002259 2.998873 L 29.201226 2.99851 " stroke="#004aad" stroke-width="6" stroke-opacity="1" stroke-miterlimit="4"/><path stroke-linecap="round" transform="matrix(0.749991, 0.00364086, -0.00364086, 0.749991, 282.135893, 205.348947)" fill="none" stroke-linejoin="miter" d="M 3.000072 2.999375 L 38.198413 3.000381 " stroke="#004aad" stroke-width="6" stroke-opacity="1" stroke-miterlimit="4"/><path stroke-linecap="round" transform="matrix(0.75, 0, 0, 0.75, 281.395064, 152.426577)" fill="none" stroke-linejoin="miter" d="M 2.99929 2.998939 L 31.598251 2.998939 " stroke="#004aad" stroke-width="6" stroke-opacity="1" stroke-miterlimit="4"/><path stroke-linecap="round" transform="matrix(0.75, 0.000000000000000751, -0.000000000000000751, 0.75, 264.744537, 223.224991)" fill="none" stroke-linejoin="miter" d="M 3.002076 3.002096 L 53.798955 3.002096 " stroke="#004aad" stroke-width="6" stroke-opacity="1" stroke-miterlimit="4"/><path stroke-linecap="round" transform="matrix(0.75, 0.000000000000000331, -0.000000000000000331, 0.75, 264.744537, 135.21711)" fill="none" stroke-linejoin="miter" d="M 3.002076 3.002188 L 61.371872 3.002188 " stroke="#004aad" stroke-width="6" stroke-opacity="1" stroke-miterlimit="4"/><g clip-path="url(#a6b3a9d4c5)"><g clip-path="url(#f51bd7a45f)"><g transform="matrix(1, 0, 0, 1, 147, 205)"><g clip-path="url(#371db13b11)"><g clip-path="url(#9c69f6ee76)"><g clip-path="url(#a72f340ada)"><path fill="#004aad" d="M 5.976562 0.953125 L 5.976562 4.914062 L 0.734375 4.914062 L 0.734375 0.953125 Z M 5.976562 0.953125 " fill-opacity="1" fill-rule="nonzero"/></g></g></g></g></g></g><g clip-path="url(#5a2f4dd7bb)"><g clip-path="url(#cd9e865b08)"><path stroke-linecap="butt" transform="matrix(0, 0.75, -0.75, 0, 206.17483, 135.026403)" fill="none" stroke-linejoin="miter" d="M 41.39709 3.519565 C 47.740841 1.394565 54.996049 -0.00126812 62.095008 -0.00126812 C 69.199175 -0.00126812 76.027301 1.196649 82.324176 3.321649 C 82.459593 3.384149 82.59501 3.384149 82.725218 3.451857 C 106.376261 11.951858 123.787721 34.394567 124.126262 59.556027 L 124.126262 96.076863 C 124.126262 97.670613 123.490846 99.196655 122.365846 100.321655 C 121.240845 101.446655 119.714804 102.076864 118.126262 102.076864 L 6.001255 102.076864 C 4.407504 102.076864 2.881463 101.446655 1.756463 100.321655 C 0.631463 99.196655 0.00125416 97.670613 0.00125416 96.076863 L 0.00125416 59.587277 C 0.334588 34.259151 17.48563 11.816441 41.39709 3.519565 Z M 41.39709 3.519565 " stroke="#004aad" stroke-width="12" stroke-opacity="1" stroke-miterlimit="4"/></g></g><g clip-path="url(#3133c54eef)"><g transform="matrix(1, 0, 0, 1, 134, 216)"><g clip-path="url(#cfc701f13f)"><g clip-path="url(#9c45b16558)"><path fill="#ffffff" d="M 0.726562 0.03125 L 13.742188 0.03125 L 13.742188 14.164062 L 0.726562 14.164062 Z M 0.726562 0.03125 " fill-opacity="1" fill-rule="nonzero"/></g></g></g></g><g clip-path="url(#06b2cc1094)"><g clip-path="url(#5301990f46)"><g transform="matrix(1, 0, 0, 1, 145, 222)"><g clip-path="url(#56d370604b)"><g clip-path="url(#88380e323d)"><g clip-path="url(#142711a801)"><path fill="#004aad" d="M 0.109375 0.0625 L 9.035156 0.0625 L 9.035156 8.984375 L 0.109375 8.984375 Z M 0.109375 0.0625 " fill-opacity="1" fill-rule="nonzero"/></g></g></g></g></g></g><g fill="#737373" fill-opacity="1"><g transform="translate(67.180963, 230.337911)"><g><path d="M -10.90625 40.40625 C -11.675781 40.3125 -12.425781 39.945312 -13.15625 39.3125 C -13.882812 38.6875 -14.488281 37.257812 -14.96875 35.03125 C -14.78125 33.09375 -14.222656 30.304688 -13.296875 26.671875 C -12.378906 23.035156 -11.21875 19.132812 -9.8125 14.96875 C -8.40625 10.800781 -7 6.828125 -5.59375 3.046875 C -4.1875 -0.722656 -3 -3.773438 -2.03125 -6.109375 C 2.226562 -15.597656 5.617188 -23.054688 8.140625 -28.484375 C 10.660156 -33.910156 12.789062 -38.269531 14.53125 -41.5625 C 15.5 -43.21875 17.070312 -44.625 19.25 -45.78125 C 21.4375 -46.945312 23.207031 -47.53125 24.5625 -47.53125 C 26.019531 -47.53125 26.75 -47.046875 26.75 -46.078125 C 26.75 -45.296875 26.265625 -44.128906 25.296875 -42.578125 C 24.421875 -41.328125 23.207031 -39.367188 21.65625 -36.703125 C 20.101562 -34.035156 18.429688 -31.050781 16.640625 -27.75 C 14.847656 -24.457031 13.128906 -21.210938 11.484375 -18.015625 C 9.347656 -13.953125 8.28125 -10.414062 8.28125 -7.40625 C 8.28125 -4.988281 9.007812 -3.78125 10.46875 -3.78125 C 11.238281 -3.78125 12.253906 -4.210938 13.515625 -5.078125 C 14.773438 -5.953125 16.273438 -7.359375 18.015625 -9.296875 C 18.796875 -10.078125 19.984375 -11.628906 21.578125 -13.953125 C 23.179688 -16.273438 25 -18.914062 27.03125 -21.875 C 29.070312 -24.832031 31.0625 -27.738281 33 -30.59375 C 34.9375 -33.445312 36.535156 -35.796875 37.796875 -37.640625 C 40.117188 -42.097656 42.585938 -45.101562 45.203125 -46.65625 C 47.816406 -48.207031 50.914062 -48.984375 54.5 -48.984375 C 53.53125 -48.492188 52.367188 -47.234375 51.015625 -45.203125 C 49.660156 -43.171875 48.253906 -41.085938 46.796875 -38.953125 C 45.828125 -37.492188 44.757812 -35.601562 43.59375 -33.28125 C 42.4375 -30.957031 41.273438 -28.507812 40.109375 -25.9375 C 38.953125 -23.375 37.960938 -20.976562 37.140625 -18.75 C 36.316406 -16.519531 35.757812 -14.773438 35.46875 -13.515625 C 34.976562 -11.378906 34.734375 -9.6875 34.734375 -8.4375 C 34.734375 -6.101562 35.316406 -4.9375 36.484375 -4.9375 C 36.867188 -4.9375 37.351562 -5.082031 37.9375 -5.375 C 39 -5.863281 40.015625 -6.46875 40.984375 -7.1875 C 41.953125 -7.914062 42.921875 -8.671875 43.890625 -9.453125 C 44.566406 -9.929688 44.957031 -10.171875 45.0625 -10.171875 C 45.539062 -10.171875 45.660156 -9.632812 45.421875 -8.5625 C 45.179688 -7.5 44.578125 -6.4375 43.609375 -5.375 C 41.765625 -3.4375 39.65625 -1.984375 37.28125 -1.015625 C 34.90625 -0.046875 32.894531 0.4375 31.25 0.4375 C 27.957031 0.4375 26.3125 -1.597656 26.3125 -5.671875 C 26.3125 -7.609375 26.648438 -9.859375 27.328125 -12.421875 C 28.003906 -14.992188 28.925781 -17.78125 30.09375 -20.78125 C 28.050781 -17.582031 25.796875 -14.382812 23.328125 -11.1875 C 20.859375 -7.988281 18.335938 -5.347656 15.765625 -3.265625 C 13.203125 -1.179688 10.707031 -0.140625 8.28125 -0.140625 C 6.25 -0.140625 4.75 -0.625 3.78125 -1.59375 C 0.582031 5.769531 -2.394531 13.203125 -5.15625 20.703125 C -7.914062 28.210938 -9.832031 34.78125 -10.90625 40.40625 Z M -10.90625 40.40625 "/></g></g></g></svg>